<?xml version="1.0" encoding="UTF-8" standalone="no"?><!-- Generator: Gravit.io --><svg xmlns="http://www.w3.org/2000/svg" xmlns:xlink="http://www.w3.org/1999/xlink" style="isolation:isolate" viewBox="378 244 129.67 29.2" width="129.67pt" height="29.2pt"><defs><clipPath id="_clipPath_azjONkb98ZZjz2Al2wlCK1EEGFOqdSRY"><rect x="378" y="244" width="129.67" height="29.2"/></clipPath></defs><g clip-path="url(#_clipPath_azjONkb98ZZjz2Al2wlCK1EEGFOqdSRY)"><g><path d=" M 409.27 250.85 L 412.27 250.85 L 412.27 265.3 L 409.27 265.3 L 409.27 250.85 Z " fill="rgb(57,65,73)"/><path d=" M 413.95 260.35 C 413.95 258.224 415.232 256.308 417.198 255.497 C 419.163 254.686 421.424 255.141 422.923 256.648 C 424.422 258.156 424.864 260.419 424.042 262.38 C 423.22 264.341 421.296 265.612 419.17 265.6 C 417.777 265.611 416.438 265.06 415.456 264.072 C 414.474 263.085 413.931 261.743 413.95 260.35 Z  M 421.47 260.35 C 421.437 259.099 420.402 258.109 419.151 258.13 C 417.9 258.152 416.9 259.178 416.911 260.429 C 416.922 261.681 417.939 262.69 419.19 262.69 C 419.807 262.702 420.401 262.457 420.83 262.013 C 421.259 261.569 421.483 260.966 421.45 260.35 L 421.47 260.35 Z " fill="rgb(57,65,73)"/><path d=" M 436.26 255.4 L 436.26 264.81 C 436.26 268.13 433.66 269.54 431.03 269.54 C 429.138 269.695 427.321 268.766 426.34 267.14 L 428.87 265.68 C 429.29 266.526 430.19 267.024 431.13 266.93 C 431.722 267.003 432.316 266.808 432.749 266.398 C 433.183 265.987 433.41 265.405 433.37 264.81 L 433.37 263.9 C 432.662 264.758 431.591 265.233 430.48 265.18 C 427.719 265.18 425.48 262.941 425.48 260.18 C 425.48 257.419 427.719 255.18 430.48 255.18 C 431.591 255.127 432.662 255.602 433.37 256.46 L 433.37 255.46 L 436.26 255.4 Z  M 433.37 260.15 C 433.411 259.171 432.853 258.266 431.96 257.863 C 431.067 257.46 430.019 257.639 429.312 258.317 C 428.604 258.995 428.38 260.035 428.745 260.944 C 429.11 261.853 429.99 262.449 430.97 262.45 C 431.602 262.496 432.223 262.271 432.681 261.833 C 433.138 261.395 433.389 260.783 433.37 260.15 Z " fill="rgb(57,65,73)"/><path d=" M 437.95 260.35 C 437.95 258.226 439.23 256.311 441.193 255.499 C 443.156 254.687 445.415 255.138 446.916 256.641 C 448.417 258.145 448.863 260.405 448.047 262.366 C 447.232 264.327 445.314 265.604 443.19 265.6 C 441.794 265.614 440.452 265.064 439.466 264.077 C 438.48 263.089 437.934 261.746 437.95 260.35 Z  M 445.47 260.35 C 445.437 259.098 444.4 258.107 443.148 258.13 C 441.895 258.154 440.897 259.184 440.911 260.436 C 440.925 261.689 441.947 262.695 443.2 262.69 C 443.817 262.702 444.411 262.457 444.84 262.013 C 445.269 261.569 445.493 260.966 445.46 260.35 L 445.47 260.35 Z " fill="rgb(57,65,73)"/><path d=" M 449.82 252.75 C 449.82 251.767 450.617 250.97 451.6 250.97 C 452.583 250.97 453.38 251.767 453.38 252.75 C 453.38 253.733 452.583 254.53 451.6 254.53 C 450.621 254.519 449.831 253.729 449.82 252.75 Z  M 450.11 255.4 L 453.11 255.4 L 453.11 265.3 L 450.11 265.3 L 450.11 255.4 Z " fill="rgb(57,65,73)"/><path d=" M 465.95 260.35 C 466.018 261.68 465.553 262.982 464.657 263.967 C 463.762 264.953 462.51 265.54 461.18 265.6 C 460.048 265.675 458.943 265.23 458.18 264.39 L 458.18 269.28 L 455.18 269.28 L 455.18 255.4 L 458.18 255.4 L 458.18 256.33 C 458.944 255.493 460.049 255.051 461.18 255.13 C 462.505 255.19 463.752 255.773 464.646 256.752 C 465.541 257.731 466.01 259.025 465.95 260.35 Z  M 462.95 260.35 C 462.917 259.054 461.844 258.027 460.548 258.05 C 459.251 258.074 458.217 259.139 458.231 260.436 C 458.245 261.733 459.303 262.775 460.6 262.77 C 461.244 262.797 461.868 262.549 462.317 262.086 C 462.766 261.624 462.996 260.993 462.95 260.35 Z " fill="rgb(57,65,73)"/><path d=" M 475.08 262.33 C 475.08 264.61 473.08 265.58 470.96 265.58 C 469.191 265.739 467.503 264.804 466.7 263.22 L 469.28 261.76 C 469.491 262.495 470.187 262.983 470.95 262.93 C 471.66 262.93 472.02 262.71 472.02 262.31 C 472.02 261.22 467.15 261.8 467.15 258.37 C 467.15 256.21 468.97 255.13 471.03 255.13 C 472.625 255.059 474.131 255.869 474.95 257.24 L 472.37 258.6 C 472.137 258.073 471.616 257.732 471.04 257.73 C 470.52 257.73 470.21 257.93 470.21 258.28 C 470.21 259.42 475.08 258.67 475.08 262.33 Z " fill="rgb(57,65,73)"/><path d=" M 485.95 255.4 L 485.95 265.3 L 482.95 265.3 L 482.95 264.37 C 482.259 265.205 481.212 265.661 480.13 265.6 C 478.13 265.6 476.42 264.17 476.42 261.5 L 476.42 255.4 L 479.42 255.4 L 479.42 261.05 C 479.372 261.528 479.537 262.003 479.869 262.349 C 480.202 262.696 480.67 262.879 481.15 262.85 C 482.23 262.85 482.99 262.21 482.99 260.85 L 482.99 255.4 L 485.95 255.4 Z " fill="rgb(57,65,73)"/><path d=" M 502.95 259.22 L 502.95 265.3 L 499.95 265.3 L 499.95 259.48 C 499.95 258.48 499.48 257.86 498.53 257.86 C 497.58 257.86 496.98 258.55 496.98 259.72 L 496.98 265.3 L 493.98 265.3 L 493.98 259.48 C 493.98 258.48 493.51 257.86 492.56 257.86 C 491.61 257.86 491.01 258.55 491.01 259.72 L 491.01 265.3 L 488.01 265.3 L 488.01 255.4 L 491.01 255.4 L 491.01 256.31 C 491.641 255.493 492.641 255.05 493.67 255.13 C 494.702 255.076 495.686 255.57 496.26 256.43 C 496.93 255.532 498.014 255.042 499.13 255.13 C 501.47 255.13 502.95 256.75 502.95 259.22 Z " fill="rgb(57,65,73)"/><path d=" M 391.4 248.25 L 391.4 244 L 378 244 L 378 273.2 L 391.4 273.2 L 391.4 268.95 C 385.684 268.95 381.05 264.316 381.05 258.6 C 381.05 252.884 385.684 248.25 391.4 248.25 L 391.4 248.25 Z " fill="rgb(57,65,73)"/><path d=" M 391.4 248.25 L 391.4 268.95 C 397.116 268.95 401.75 264.316 401.75 258.6 C 401.75 252.884 397.116 248.25 391.4 248.25 Z " fill="rgb(57,65,73)"/><circle vector-effect="non-scaling-stroke" cx="505.47" cy="253.14" r="2.1999999999999886" fill="rgb(57,65,73)"/></g></g></svg>